<svg xmlns="http://www.w3.org/2000/svg" viewBox="0 0 24 30" fill="none" x="0px" y="0px"><path d="M16.5 12C16.5 14.4853 14.4853 16.5 12 16.5C9.51472 16.5 7.5 14.4853 7.5 12C7.5 9.51472 9.51472 7.5 12 7.5C14.4853 7.5 16.5 9.51472 16.5 12Z" fill="black"/><path fill-rule="evenodd" clip-rule="evenodd" d="M12 8.25C9.92893 8.25 8.25 9.92893 8.25 12C8.25 14.0711 9.92893 15.75 12 15.75C14.0711 15.75 15.75 14.0711 15.75 12C15.75 9.92893 14.0711 8.25 12 8.25ZM6.75 12C6.75 9.1005 9.1005 6.75 12 6.75C14.8995 6.75 17.25 9.1005 17.25 12C17.25 14.8995 14.8995 17.25 12 17.25C9.1005 17.25 6.75 14.8995 6.75 12Z" fill="black"/><path fill-rule="evenodd" clip-rule="evenodd" d="M12 1.75C12.4142 1.75 12.75 2.08579 12.75 2.5V5C12.75 5.41421 12.4142 5.75 12 5.75C11.5858 5.75 11.25 5.41421 11.25 5V2.5C11.25 2.08579 11.5858 1.75 12 1.75ZM12 18.25C12.4142 18.25 12.75 18.5858 12.75 19V21.5C12.75 21.9142 12.4142 22.25 12 22.25C11.5858 22.25 11.25 21.9142 11.25 21.5V19C11.25 18.5858 11.5858 18.25 12 18.25Z" fill="black"/><path fill-rule="evenodd" clip-rule="evenodd" d="M4.75213 4.75216C5.04503 4.45926 5.5199 4.45926 5.81279 4.75216L7.58056 6.51992C7.87345 6.81282 7.87345 7.28769 7.58056 7.58058C7.28767 7.87348 6.81279 7.87348 6.5199 7.58058L4.75213 5.81282C4.45924 5.51992 4.45924 5.04505 4.75213 4.75216ZM16.4194 16.4194C16.7123 16.1265 17.1872 16.1265 17.4801 16.4194L19.2478 18.1872C19.5407 18.4801 19.5407 18.955 19.2478 19.2478C18.9549 19.5407 18.4801 19.5407 18.1872 19.2478L16.4194 17.4801C16.1265 17.1872 16.1265 16.7123 16.4194 16.4194Z" fill="black"/><path fill-rule="evenodd" clip-rule="evenodd" d="M19.2479 4.75216C19.5408 5.04506 19.5408 5.51993 19.2479 5.81282L17.4801 7.58059C17.1872 7.87348 16.7123 7.87348 16.4194 7.58059C16.1265 7.2877 16.1265 6.81282 16.4194 6.51993L18.1872 4.75216C18.4801 4.45927 18.955 4.45927 19.2479 4.75216ZM7.5806 16.4194C7.87349 16.7123 7.87349 17.1872 7.5806 17.4801L5.81283 19.2479C5.51994 19.5407 5.04506 19.5407 4.75217 19.2479C4.45928 18.955 4.45928 18.4801 4.75217 18.1872L6.51994 16.4194C6.81283 16.1265 7.2877 16.1265 7.5806 16.4194Z" fill="black"/><path fill-rule="evenodd" clip-rule="evenodd" d="M22.25 12C22.25 12.4142 21.9142 12.75 21.5 12.75L19 12.75C18.5858 12.75 18.25 12.4142 18.25 12C18.25 11.5858 18.5858 11.25 19 11.25L21.5 11.25C21.9142 11.25 22.25 11.5858 22.25 12ZM5.75 12C5.75 12.4142 5.41421 12.75 5 12.75L2.5 12.75C2.08579 12.75 1.75 12.4142 1.75 12C1.75 11.5858 2.08579 11.25 2.5 11.25L5 11.25C5.41421 11.25 5.75 11.5858 5.75 12Z" fill="black"/><text x="0" y="39" fill="#000000" font-size="5px" font-weight="bold" font-family="'Helvetica Neue', Helvetica, Arial-Unicode, Arial, Sans-serif">Created by Annisa Aulia Rahman</text><text x="0" y="44" fill="#000000" font-size="5px" font-weight="bold" font-family="'Helvetica Neue', Helvetica, Arial-Unicode, Arial, Sans-serif">from the Noun Project</text></svg>